<svg width="533" height="331" viewBox="0 0 533 331" fill="none" xmlns="http://www.w3.org/2000/svg">
<rect width="533" height="331" rx="30" fill="white"/>
<path d="M0 30C0 13.4315 13.4315 0 30 0H503C519.569 0 533 13.4315 533 30V58H0V30Z" fill="#D9D9D9"/>
<circle cx="43" cy="29" r="12" fill="#EF4444"/>
<circle cx="77" cy="29" r="12" fill="#F59E0B"/>
<circle cx="111" cy="29" r="12" fill="#10B981"/>
<rect x="38" y="258" width="457" height="50" rx="8" fill="#2D6CDF"/>
<rect x="37.4" y="174.4" width="88.2" height="65.2" rx="8.6" fill="#EFF6FF" stroke="#AFD1FF" stroke-width="1.2"/>
<rect x="38" y="87" width="60" height="60" rx="8" fill="url(#paint0_linear_1_35)"/>
<rect x="111" y="100" width="144" height="15" rx="7.5" fill="#EAEAEA"/>
<rect x="111" y="119" width="230" height="15" rx="7.5" fill="#EAEAEA"/>
<rect x="129.4" y="174.4" width="89.2" height="65.2" rx="8.6" fill="#EFF6FF" stroke="#AFD1FF" stroke-width="1.2"/>
<rect x="222.4" y="174.4" width="88.2" height="65.2" rx="8.6" fill="#F0FDF4" stroke="#A7FFC6" stroke-width="1.2"/>
<rect x="314.4" y="174.4" width="88.2" height="65.2" rx="8.6" fill="#F0FDF4" stroke="#A7FFC6" stroke-width="1.2"/>
<rect x="407.4" y="174.4" width="88.2" height="65.2" rx="8.6" fill="#EFF6FF" stroke="#AFD1FF" stroke-width="1.2"/>
<defs>
<linearGradient id="paint0_linear_1_35" x1="64" y1="111.5" x2="98" y2="147" gradientUnits="userSpaceOnUse">
<stop stop-color="#2D6CDF"/>
<stop offset="1" stop-color="#6E99E8"/>
</linearGradient>
</defs>
</svg>
