<svg width="71" height="65" viewBox="0 0 71 65" fill="none" xmlns="http://www.w3.org/2000/svg">
<defs>
<linearGradient id="paint0_linear" x1="1" y1="5" x2="69" y2="60.6591" gradientUnits="userSpaceOnUse">
<stop stop-color="#2D6CDF"/>
<stop offset="1" stop-color="#60A5FA"/>
</linearGradient>
</defs>
<path d="M13.4957 5H59C64.5228 5 69 9.47715 69 15H1L13.4957 5Z" fill="url(#paint0_linear)"/>
<path d="M1 17H56V22V27H1V17Z" fill="url(#paint0_linear)"/>
<path d="M1 34.0601L1 17.0601H17V34.0601H1Z" fill="url(#paint0_linear)"/>
<path d="M56 17L59 15L65.8305 9.26874L69 15L56 27L55.5 22L56 17Z" fill="url(#paint0_linear)"/>
<path d="M55.7292 33.3295C55.7292 36.9185 55.0214 40.4723 53.6462 43.7881C52.271 47.1039 50.2553 50.1167 47.7143 52.6545C45.1732 55.1922 42.1566 57.2053 38.8366 58.5788C35.5165 59.9522 31.9581 60.6591 28.3646 60.6591C24.771 60.6591 21.2126 59.9522 17.8926 58.5788C14.5726 57.2053 11.5559 55.1922 9.0149 52.6545C6.47386 50.1167 4.4582 47.1039 3.083 43.7881C1.70781 40.4723 1 36.9185 1 33.3295L16.9752 33.3295C16.9752 34.8233 17.2698 36.3024 17.8422 37.6825C18.4145 39.0626 19.2535 40.3165 20.3111 41.3728C21.3687 42.429 22.6242 43.2669 24.006 43.8385C25.3879 44.4101 26.8689 44.7044 28.3646 44.7044C29.8603 44.7044 31.3413 44.4101 32.7231 43.8385C34.1049 43.2669 35.3605 42.429 36.4181 41.3728C37.4757 40.3165 38.3146 39.0626 38.887 37.6825C39.4594 36.3024 39.754 34.8233 39.754 33.3295H55.7292Z" fill="url(#paint0_linear)"/>
</svg>
